# xmcd
#
# Track frame offsets:
#	150
#	1263
#	16877
#	32115
#	48557
#	84708
#	104624
#	126850
#	151247
#	167542
#	194286
#	224489
#	253836
#
# Disc length: 3432 seconds
#
# Revision: 0
# Processed by: cddbd v1.5.1PL2 Copyright (c) Steve Scherf et al.
# Submitted via: audiograbber 1.83.01
#
DISCID=ac0d660d
DTITLE=Gunter Schulze and Woyaya - Blues Rock Live Reunion
DYEAR=2005
DGENRE=Blues Rock
TTITLE0=Introdoction
TTITLE1=Still Alive And Well
TTITLE2=Country Mile
TTITLE3=Poor Boy
TTITLE4=In Your Town
TTITLE5=Bullfrog Blues
TTITLE6=Alethea
TTITLE7=Messin' With The Kid
TTITLE8=Route 66
TTITLE9=Moon Child
TTITLE10=Love Like A Man
TTITLE11=Driftin' Blues
TTITLE12=Extension
EXTD=
EXTT0=
EXTT1=
EXTT2=
EXTT3=
EXTT4=
EXTT5=
EXTT6=
EXTT7=
EXTT8=
EXTT9=
EXTT10=
EXTT11=
EXTT12=
PLAYORDER=
